:SAMPLES-PER-SECOND 30
:FULLY-SPECIFIED
:DEGREES
159
root  34.97380234 36.51117941 -14.73350975 10.73626804 3.525214911 4.106702328
lowerback  -8.062708855 2.818120003 2.925919771
upperback  -4.041759968 3.209700108 -4.264339924
thorax  0.7358729839 1.371119976 -5.801189899
lowerneck  -15.8046999 5.120110035 7.360219955
upperneck  15.97049999 4.366839886 3.00635004
head  7.657569885 2.723589897 0.2783748507
lclavicle  0 -4.497500157e-015 -2.743230041e-014
lhumerus  -42.93569946 23.89539909 70.21160126
lradius  -0.06187332422 -6.507048965e-006 26.87450027
lwrist  4.824992743e-007 -3.790274832e-007 -29.18379974
lhand  -4.447260948e-031 -37.43909836 -10.81359959
lfingers  90 7.125020027 -90
lthumb  95.0998741 -25.62695715 101.658951
rclavicle  0 -4.497500157e-015 -2.743230041e-014
rhumerus  62.43049622 13.79030132 -53.84320068
rradius  -5.16745672e-007 2.214343908e-008 58.04869843
rwrist  -3.062178075e-005 0.01504683681 -169.6959991
rhand  -1.773965891e-031 5.579090118 -7.313809872
rfingers  -90 -7.125020027 -90
rthumb  -84.68064988 -8.797626782 -58.66831746
rfemur  -13.83612537 13.35608292 13.22175503
rtibia  -1.838956118 0.4512431026 22.34971619
rfoot  -1.418893695 -18.55786133 -40.82240295
rtoes  3.971677195 19.61752419 -101.6839199
lfemur  -10.54373455 -19.4839592 -19.71221542
ltibia  3.368876219 1.127476454 14.42547417
lfoot  1.02418685 -27.33761406 33.38879013
ltoes  -8.634978259 -18.10912451 -116.0386206
160
root  34.97475151 36.50875542 -14.7281872 10.76303768 3.638342857 4.116040707
lowerback  -8.000439644 2.845609903 2.958930016
upperback  -4.070330143 3.244679928 -4.252689838
thorax  0.6772530079 1.386700034 -5.807260036
lowerneck  -15.79880047 5.148660183 7.361310005
upperneck  15.96010017 4.420259953 2.955060005
head  7.662306309 2.745379925 0.267386049
lclavicle  0 -4.497500157e-015 -2.743230041e-014
lhumerus  -42.90610123 23.83760071 70.2947998
lradius  -0.06296437234 -6.507048965e-006 26.85539818
lwrist  4.824992743e-007 -3.790274832e-007 -29.06110001
lhand  -4.445924607e-031 -37.41659927 -10.87290001
lfingers  90 7.125020027 -90
lthumb  95.10245953 -25.6857984 101.6404976
rclavicle  0 -4.497500157e-015 -2.743230041e-014
rhumerus  62.86520004 13.78170109 -53.82360077
rradius  -5.16745672e-007 2.214343908e-008 57.30379868
rwrist  -3.062178075e-005 0.01498719305 -169.1499939
rhand  -1.773706876e-031 5.492770195 -7.206250191
rfingers  -90 -7.125020027 -90
rthumb  -84.64503357 -8.883896529 -58.74381349
rfemur  -13.84454155 13.28159523 13.2251606
rtibia  -1.853189826 0.4489328265 22.34885788
rfoot  -1.424066663 -18.53039742 -40.84755325
rtoes  3.945574259 19.62259141 -101.606182
lfemur  -10.5685339 -19.46439362 -19.70953751
ltibia  3.383853912 1.171589255 14.42609978
lfoot  1.046104789 -27.43371391 33.3229332
ltoes  -8.64839335 -18.10288893 -116.081787
161
root  34.97784532 36.50892964 -14.72707733 10.7960577 3.742847443 4.112237453
lowerback  -7.97176981 2.887569904 2.992869854
upperback  -4.078710079 3.298510075 -4.286849976
thorax  0.6631019711 1.41237998 -5.858789921
lowerneck  -15.81869984 5.192689896 7.474259853
upperneck  15.95930004 4.466040134 2.884180069
head  7.663969994 2.768039942 0.2323489636
lclavicle  0 -4.497500157e-015 -2.743230041e-014
lhumerus  -42.83840179 23.78890038 70.26660156
lradius  -0.06405963004 -6.507048965e-006 26.74960136
lwrist  4.824992743e-007 -3.790274832e-007 -29.3416996
lhand  -4.448949928e-031 -37.46749878 -10.8416996
lfingers  90 7.125020027 -90
lthumb  95.11952536 -25.65331723 101.6919692
rclavicle  0 -4.497500157e-015 -2.743230041e-014
rhumerus  63.25120163 13.71720028 -53.86109924
rradius  -5.16745672e-007 2.214343908e-008 56.55110168
rwrist  -3.062178075e-005 0.01492754929 -168.5390015
rhand  -1.773071127e-031 5.274819851 -7.382599831
rfingers  -90 -7.125020027 -90
rthumb  -84.78979798 -8.718670628 -58.97044486
rfemur  -13.85233402 13.26730633 13.23882866
rtibia  -1.857015848 0.4803160429 22.33436584
rfoot  -1.436045766 -18.45212746 -40.93920135
rtoes  3.962538615 19.61930219 -101.6567018
lfemur  -10.66345215 -19.503088 -19.66364098
ltibia  3.349373579 1.179611325 14.5128994
lfoot  1.04025948 -27.48168182 33.23786926
ltoes  -8.620005514 -18.11606981 -115.990459
162
root  34.97953039 36.5101221 -14.73117738 10.83444977 3.816201925 4.130130768
lowerback  -8.004430771 2.928319931 3.024710178
upperback  -4.060299873 3.353009939 -4.29117012
thorax  0.7089719772 1.44175005 -5.874479771
lowerneck  -15.82549953 5.238299847 7.445600033
upperneck  15.92339993 4.524449348 2.947360039
head  7.652329922 2.799659967 0.2641211152
lclavicle  0 -4.497500157e-015 -2.743230041e-014
lhumerus  -42.76610184 23.82229996 70.2480011
lradius  -0.06515904516 -6.507048965e-006 26.66010094
lwrist  4.824992743e-007 -3.790274832e-007 -29.59180069
lhand  -4.452818444e-031 -37.53239822 -10.84309959
lfingers  90 7.125020027 -90
lthumb  95.1505054 -25.65221892 101.7615835
rclavicle  0 -4.497500157e-015 -2.743230041e-014
rhumerus  63.69570541 13.67539787 -53.91540146
rradius  -5.16745672e-007 2.214343908e-008 55.7602005
rwrist  -3.062178075e-005 0.01486790553 -168.1649933
rhand  -1.772708501e-031 5.146309853 -7.215970039
rfingers  -90 -7.125020027 -90
rthumb  -84.73383526 -8.853072359 -59.08255118
rfemur  -13.89653778 13.23581314 13.23306942
rtibia  -1.875841022 0.4835659266 22.37188148
rfoot  -1.46649754 -18.42908287 -40.98871994
rtoes  3.958235528 19.62013791 -101.6438865
lfemur  -10.76542473 -19.61256218 -19.64240265
ltibia  3.319366693 1.154776454 14.59085083
lfoot  1.032665372 -27.45485115 33.20973969
ltoes  -8.631130548 -18.11091076 -116.0262423
163
root  34.97971362 36.51073486 -14.73473677 10.84432316 3.89625144 4.129553318
lowerback  -8.060171127 2.983669996 3.096940517
upperback  -4.043990135 3.423120022 -4.311860085
thorax  0.7706260085 1.47834003 -5.928060055
lowerneck  -15.9151001 5.280620098 7.384970188
upperneck  15.95810032 4.568029404 3.042929888
head  7.676539898 2.827330112 0.3131020963
lclavicle  0 -4.497500157e-015 -2.743230041e-014
lhumerus  -42.6711998 23.81459999 70.29779816
lradius  -0.06627746671 -6.507048965e-006 26.60340118
lwrist  4.824992743e-007 -3.790274832e-007 -29.66480064
lhand  -0 -37.53929901 -10.82390022
lfingers  90 7.125020027 -90
lthumb  95.1494569 -25.63321165 101.7671459
rclavicle  0 -4.497500157e-015 -2.743230041e-014
rhumerus  64.11599731 13.60000134 -53.93349838
rradius  -5.16745672e-007 2.214343908e-008 55.01279831
rwrist  -3.062178075e-005 0.01480826084 -167.5480042
rhand  -1.771676022e-031 4.761189938 -7.226799965
rfingers  -90 -7.125020027 -90
rthumb  -84.83123895 -8.819081271 -59.45895034
rfemur  -13.90835953 13.21284199 13.25143433
rtibia  -1.885357141 0.516917944 22.39728928
rfoot  -1.477870107 -18.36922264 -41.01867676
rtoes  3.924052621 19.62674302 -101.5421023
lfemur  -10.79955196 -19.6181469 -19.61521912
ltibia  3.312051296 1.173303485 14.60811806
lfoot  1.030793667 -27.49113846 33.16225433
ltoes  -8.671977748 -18.09189704 -116.1577106
164
root  34.97979172 36.51164198 -14.73506717 10.86718082 3.99885726 4.137932301
lowerback  -8.068148613 3.01602006 3.121959686
upperback  -4.039179802 3.465820074 -4.319970131
thorax  0.7872859836 1.500429988 -5.946199894
lowerneck  -16.05220032 5.332290173 7.462659836
upperneck  16.06065559 4.607004642 3.015449762
head  7.737969875 2.851629972 0.3011968732
lclavicle  0 -4.497500157e-015 -2.743230041e-014
lhumerus  -42.59199905 23.83250046 70.30319977
lradius  -0.06741242111 -6.507048965e-006 26.53689957
lwrist  4.824992743e-007 -3.790274832e-007 -29.82430077
lhand  -4.452728941e-031 -37.53089905 -10.83979988
lfingers  90 7.125020027 -90
lthumb  95.14906688 -25.64901517 101.7597038
rclavicle  0 -4.497500157e-015 -2.743230041e-014
rhumerus  64.53790283 13.52110004 -54.04539871
rradius  -5.16745672e-007 2.214343908e-008 54.19300079
rwrist  -3.062178075e-005 0.01474861708 -167.1909943
rhand  -1.77153772e-031 4.707180023 -7.083409786
rfingers  -90 -7.125020027 -90
rthumb  -84.77039111 -8.939190492 -59.50033173
rfemur  -13.94255924 13.19419193 13.26073456
rtibia  -1.901993275 0.5359563828 22.44668579
rfoot  -1.510156512 -18.33783722 -41.07596588
rtoes  3.916225121 19.62824709 -101.5187994
lfemur  -10.79405975 -19.63844299 -19.61553383
ltibia  3.341879606 1.21974051 14.55676746
lfoot  1.044374585 -27.55892181 33.1408577
ltoes  -8.686863001 -18.08494019 -116.2056527
165
root  34.98044052 36.5119093 -14.73740856 10.89167404 4.108926773 4.154366016
lowerback  -8.101631165 3.028630018 3.131610394
upperback  -4.030010223 3.483020067 -4.310130119
thorax  0.817407012 1.510570049 -5.937960148
lowerneck  -16.14109993 5.390359879 7.560070038
upperneck  16.11969948 4.672610283 2.918109894
head  7.779880047 2.882560015 0.2659268379
lclavicle  0 -4.497500157e-015 -2.743230041e-014
lhumerus  -42.54109955 23.89850044 70.28949738
lradius  -0.06855155528 -6.507048965e-006 26.48539925
lwrist  4.824992743e-007 -3.790274832e-007 -29.92399979
lhand  -4.449890616e-031 -37.48329926 -10.74600029
lfingers  90 7.125020027 -90
lthumb  95.10549571 -25.55902406 101.699648
rclavicle  0 -4.497500157e-015 -2.743230041e-014
rhumerus  64.95729828 13.52919865 -54.12099457
rradius  -5.16745672e-007 2.214343908e-008 53.43069839
rwrist  -3.062178075e-005 0.01468897332 -166.7689972
rhand  -1.771248852e-031 4.592299938 -7.263929844
rfingers  -90 -7.125020027 -90
rthumb  -84.89014486 -8.776284955 -59.62662234
rfemur  -13.98876953 13.16856766 13.26260185
rtibia  -1.926802516 0.5500791669 22.51347542
rfoot  -1.553199768 -18.3068924 -41.14268875
rtoes  3.923732329 19.62680462 -101.5411487
lfemur  -10.80767918 -19.6797657 -19.61708069
ltibia  3.36294055 1.248545647 14.52650261
lfoot  1.052347898 -27.59894943 33.1113739
ltoes  -8.687314935 -18.08472874 -116.2071085
